<svg xmlns="http://www.w3.org/2000/svg" viewBox="0 0 607.69 607.69"><defs><style>.cls-1{fill:#ff0d44;}.cls-2{fill:#fff;}</style></defs><title>Ресурс 2</title><g id="Слой_2" data-name="Слой 2"><g id="Слой_1-2" data-name="Слой 1"><circle class="cls-1" cx="303.85" cy="303.85" r="303.85"/><path class="cls-2" d="M436.8,268.11l-120-128.34a17.53,17.53,0,0,0-25.82,0L170.88,268.11a20.44,20.44,0,0,0,0,27.51l10.9,11.66a17.5,17.5,0,0,0,12.87,5.67,17.83,17.83,0,0,0,13-5.67l70.19-74.88V470.28c0,10.72,7.85,19.47,17.88,19.47h15.42c10,0,18.68-8.75,18.68-19.47V231.55l70.59,75.72a17.22,17.22,0,0,0,25.54,0l10.87-11.66A20.43,20.43,0,0,0,436.8,268.11Z"/></g></g></svg>