<svg xmlns="http://www.w3.org/2000/svg" viewBox="0 0 772 772"><defs><style>.cls-1{fill:#fff;}.cls-2{fill:#ff0d44;}</style></defs><title>Ресурс 2</title><g id="Слой_2" data-name="Слой 2"><g id="Слой_1-2" data-name="Слой 1"><circle class="cls-1" cx="386" cy="386" r="386"/><path class="cls-2" d="M548,242.49c-41.8-37.65-81.55-49.29-81.55-49.29L386.24,466h-.69L304.69,193.2s-39.75,11.29-81.55,49.29C178.59,282.87,140.21,344.82,146.72,443c5.14,77.69,62.71,143.75,62.71,143.75l111.36-.34s-95.6-50.65-118.56-130.4c-27.41-94.12,15.42-159.49,48.31-190.64C263.91,253.78,283.44,251,290.64,276c24.67,79.75,95.26,308,95.26,308h.34s70.24-228.29,95.26-308c7.54-25,27.07-22.25,40.09-10.61,32.9,31.15,75.73,96.52,48.31,190.64-23,79.75-118.56,130.4-118.56,130.4l111.36.34s57.91-66.4,62.71-143.75C631.24,344.82,592.86,282.87,548,242.49Z"/></g></g></svg>