<svg xmlns="http://www.w3.org/2000/svg" viewBox="0 0 772 772"><defs><style>.cls-1{fill:#fff;}.cls-2{fill:#ff0d44;}</style></defs><title>Ресурс 3</title><g id="Слой_2" data-name="Слой 2"><g id="Слой_1-2" data-name="Слой 1"><circle class="cls-1" cx="386" cy="386" r="386"/><path class="cls-2" d="M598.76,376.76A13.24,13.24,0,0,0,585.52,390c0,110-89.5,199.52-199.52,199.52S186.48,500,186.48,390,276,190.48,386,190.48a198.78,198.78,0,0,1,95.31,24.2l-16.56,16.56a13.24,13.24,0,0,0,9.36,22.61h63.36a13.24,13.24,0,0,0,13.24-13.24V177.24a13.24,13.24,0,0,0-22.61-9.36l-27.38,27.38A226,226,0,1,0,612,390,13.24,13.24,0,0,0,598.76,376.76Z"/><path class="cls-2" d="M471.1,376.76H399.24V304.9a13.24,13.24,0,0,0-26.48,0V390A13.24,13.24,0,0,0,386,403.24h85.1a13.24,13.24,0,0,0,0-26.48Z"/></g></g></svg>