<svg xmlns="http://www.w3.org/2000/svg" viewBox="0 0 772 772"><defs><style>.cls-1{fill:#fff;}.cls-2{fill:#ff0d44;}</style></defs><title>Ресурс 1</title><g id="Слой_2" data-name="Слой 2"><g id="Слой_1-2" data-name="Слой 1"><circle class="cls-1" cx="386" cy="386" r="386"/><path class="cls-2" d="M588.32,282.11C534.3,225.3,462.44,194,386,194s-148.3,31.3-202.32,88.11a26.63,26.63,0,0,0,0,36.28l40.25,42.32c9.48,9.94,26.22,9.94,35.7,0A176.84,176.84,0,0,1,305,326.08c8.34-4.3,13.72-13.35,13.66-21.89l6.07-45.87c44.53-14.23,78.4-14.22,122.49,0l6,44.73a26.23,26.23,0,0,0,13.52,23.11,177.38,177.38,0,0,1,45.5,34.67,24.5,24.5,0,0,0,35.7,0l40.35-42.44A26.63,26.63,0,0,0,588.32,282.11Z"/><path class="cls-2" d="M499.56,356.73a43.57,43.57,0,0,0-38.51-23.1H310.95a43.57,43.57,0,0,0-38.51,23.1L216.59,461.47A43.84,43.84,0,0,0,211.45,482v61.09A35,35,0,0,0,246.36,578H525.64a35,35,0,0,0,34.91-34.91V482a43.9,43.9,0,0,0-5.13-20.54ZM333.62,525.64a17.45,17.45,0,1,1,17.45-17.45A17.47,17.47,0,0,1,333.62,525.64Zm0-52.36a17.45,17.45,0,1,1,17.45-17.45A17.47,17.47,0,0,1,333.62,473.27Zm0-52.36a17.45,17.45,0,1,1,17.45-17.45A17.47,17.47,0,0,1,333.62,420.91ZM386,525.64a17.45,17.45,0,1,1,17.45-17.45A17.47,17.47,0,0,1,386,525.64Zm0-52.36a17.45,17.45,0,1,1,17.45-17.45A17.47,17.47,0,0,1,386,473.27Zm0-52.36a17.45,17.45,0,1,1,17.45-17.45A17.47,17.47,0,0,1,386,420.91Zm52.35,104.73a17.45,17.45,0,1,1,17.45-17.45A17.47,17.47,0,0,1,438.35,525.64Zm0-52.36a17.45,17.45,0,1,1,17.45-17.45A17.47,17.47,0,0,1,438.35,473.27Zm0-52.36a17.45,17.45,0,1,1,17.45-17.45A17.47,17.47,0,0,1,438.35,420.91Z"/></g></g></svg>