<svg xmlns="http://www.w3.org/2000/svg" viewBox="0 0 402.34 402.44"><defs><style>.cls-1{fill:#fff;}</style></defs><title>Ресурс 1</title><g id="Слой_2" data-name="Слой 2"><g id="Слой_1-2" data-name="Слой 1"><path class="cls-1" d="M311.49,402.44c-21.8.06-36.14-3.58-50.17-8.5-13.65-4.79-27.2-9.89-40.72-15-24.32-9.26-46.35-22.6-66.87-38.45C120.34,314.66,91,284.8,64.4,252.06,35.88,217,19.83,175.91,6.11,133.63,2,120.88-.53,107.84.1,94.35,1.51,64,14.11,38.51,34.34,16.52A27.87,27.87,0,0,1,46.27,8.68C57.87,5.3,69.76,2.86,81.6.38,88.87-1.15,94.17,2,97.72,8.43c5.73,10.33,11.37,20.72,17.31,30.93,8.19,14.09,16.62,28,25,42.06.85,1.43,1.77,2.82,2.6,4.27,5.43,9.49,5.23,15-2.28,23-6,6.4-12.86,12.05-19.43,17.93-6.82,6.11-13.86,12-20.59,18.16-5.82,5.34-7.58,12-3.4,18.92,11.08,18.36,21.61,37.15,34,54.59,21.44,30.15,49.44,53.46,81.17,72.28,9,5.34,18.22,10.34,27.44,15.29,6.41,3.44,12.42,2.16,17.28-3,6.29-6.64,12.21-13.63,18.31-20.45,5.76-6.45,11.17-13.28,17.4-19.25,9.21-8.84,14.88-9,25.91-2.44Q348,278.28,377.8,295.6c5.74,3.36,11.58,6.55,17.33,9.91,5.21,3,7.64,7.45,7.15,13.7a120.23,120.23,0,0,1-9.34,39.13,30.62,30.62,0,0,1-7.25,10C362.78,389.31,336.13,401.6,311.49,402.44Z"/></g></g></svg>