<svg xmlns="http://www.w3.org/2000/svg" viewBox="0 0 2673 2673"><defs><style>.cls-1{fill:#ff0d44;}.cls-2{fill:#fff;}</style></defs><title>Ресурс 1</title><g id="Слой_2" data-name="Слой 2"><g id="Слой_2-2" data-name="Слой 2"><circle class="cls-1" cx="1336.5" cy="1336.5" r="1336.5"/><path class="cls-2" d="M1077,1343.67c0-145.26,117.72-263,263-263s263,117.79,263,263-117.79,263-263,263-263-117.79-263-263m-142.2,0c0,223.78,181.4,405.18,405.18,405.18s405.18-181.4,405.18-405.18S1563.77,938.49,1340,938.49,934.8,1119.87,934.8,1343.67m731.72-421.25a94.69,94.69,0,1,0,94.73-94.65h0a94.73,94.73,0,0,0-94.69,94.65M1021.19,1986c-76.93-3.5-118.75-16.32-146.54-27.14-36.84-14.34-63.13-31.42-90.76-59s-44.74-53.86-59-90.7c-10.83-27.78-23.65-69.6-27.14-146.54-3.83-83.18-4.59-108.16-4.59-318.88S694,1108,697.73,1024.8c3.5-76.93,16.41-118.68,27.14-146.54,14.34-36.84,31.42-63.13,59-90.76s53.86-44.74,90.76-59c27.78-10.83,69.6-23.65,146.54-27.14,83.18-3.83,108.16-4.59,318.79-4.59s235.64.81,318.88,4.6c76.93,3.5,118.68,16.41,146.54,27.14,36.84,14.28,63.13,31.42,90.76,59s44.68,53.92,59,90.76c10.83,27.78,23.65,69.6,27.14,146.54,3.83,83.24,4.59,108.16,4.59,318.88s-.76,235.64-4.59,318.88c-3.5,76.93-16.38,118.75-27.14,146.54-14.34,36.84-31.42,63.13-59,90.7s-53.92,44.68-90.76,59c-27.78,10.83-69.6,23.65-146.54,27.14-83.18,3.83-108.16,4.59-318.88,4.59s-235.64-.76-318.79-4.59m-6.53-1426.61c-84,3.83-141.4,17.15-191.53,36.65-51.88,20.14-95.86,47.17-139.78,91s-70.87,87.83-91,139.78C572.82,877,559.5,934.35,555.68,1018.35s-4.78,111-4.78,325.32.89,241.19,4.78,325.32,17.15,141.37,36.65,191.53c20.14,51.88,47.11,96,91,139.78s87.83,70.82,139.78,91c50.22,19.51,107.53,32.83,191.53,36.65,84.18,3.83,111,4.78,325.32,4.78s241.19-.89,325.32-4.78,141.37-17.15,191.53-36.65c51.88-20.2,95.86-47.17,139.78-91s70.82-87.9,91-139.78c19.51-50.16,32.89-107.53,36.65-191.53,3.83-84.2,4.72-111,4.72-325.32s-.89-241.19-4.72-325.32-17.15-141.4-36.65-191.53c-20.2-51.88-47.17-95.86-91-139.78s-87.9-70.87-139.72-91c-50.22-19.51-107.59-32.89-191.53-36.65-84.15-3.84-111-4.78-325.29-4.78s-241.21.89-325.39,4.78"/></g></g></svg>