<svg xmlns="http://www.w3.org/2000/svg" viewBox="0 0 2673 2673"><defs><style>.cls-1{fill:#ff0d44;}.cls-2{fill:#fff;}</style></defs><title>Ресурс 3</title><g id="Слой_2" data-name="Слой 2"><g id="Слой_2-2" data-name="Слой 2"><circle class="cls-1" cx="1336.5" cy="1336.5" r="1336.5"/><g id="Слой_2-3" data-name="Слой 2"><g id="Слой_1-2" data-name="Слой 1-2"><path class="cls-2" d="M1740,2070.24c-79.74.22-132.19-13.09-183.51-31.09-49.93-17.52-99.49-36.18-148.94-54.87-89-33.87-169.54-82.67-244.59-140.64-122.13-94.48-229.45-203.7-326.75-323.46C731.9,1391.94,673.19,1241.64,623,1087c-15-46.64-24.29-94.33-22-143.68,5.16-111,51.25-204.25,125.24-284.68A101.94,101.94,0,0,1,769.9,630c42.43-12.36,85.92-21.29,129.23-30.36,26.59-5.6,46,5.93,59,29.44,21,37.78,41.59,75.79,63.32,113.13,30,51.54,60.79,102.42,91.44,153.85,3.11,5.23,6.47,10.31,9.51,15.62,19.86,34.71,19.13,54.87-8.34,84.13-21.95,23.41-47,44.08-71.07,65.58-24.95,22.35-50.7,43.89-75.31,66.42-21.29,19.53-27.73,43.89-12.44,69.2,40.53,67.16,79,135.89,124.36,199.68,78.42,110.28,180.84,195.54,296.9,264.38,32.92,19.53,66.64,37.82,100.37,55.93,23.45,12.58,45.43,7.9,63.21-11,23-24.29,44.66-49.86,67-74.8,21.07-23.59,40.86-48.58,63.64-70.41,33.69-32.33,54.43-32.92,94.77-8.92q108.12,64.23,217.12,127.58c21,12.29,42.36,24,63.39,36.25,19.06,11,27.95,27.25,26.15,50.11a439.77,439.77,0,0,1-34.16,143.13,112,112,0,0,1-26.52,36.58C1927.62,2022.21,1830.14,2067.16,1740,2070.24Z"/></g></g></g></g></svg>