<svg xmlns="http://www.w3.org/2000/svg" viewBox="0 0 508.09 507.11"><defs><style>.cls-1{fill:#ff0d44;}</style></defs><title>Ресурс 1</title><g id="Слой_2" data-name="Слой 2"><g id="Слой_1-2" data-name="Слой 1"><polygon class="cls-1" points="214.04 209.66 340.31 166.88 297.46 293.13 377.18 400 243.86 398.27 166.85 507.11 127.31 379.78 0 340.17 108.88 263.21 107.2 129.9 214.04 209.66"/><polygon class="cls-1" points="263.66 24.83 302.96 11.51 289.63 50.8 314.44 84.07 272.94 83.53 248.97 117.4 236.67 77.77 197.04 65.45 230.93 41.49 230.41 0 263.66 24.83"/><polygon class="cls-1" points="438.98 222.82 473.54 197.09 472.94 240.17 508.09 265.09 466.93 277.84 454.09 318.97 429.25 283.76 386.17 284.26 411.98 249.76 398.19 208.93 438.98 222.82"/></g></g></svg>