<svg xmlns="http://www.w3.org/2000/svg" viewBox="0 0 2673 2673"><defs><style>.cls-1{fill:#ff0d44;}.cls-2{fill:#fff;}</style></defs><title>Ресурс 2</title><g id="Слой_2" data-name="Слой 2"><g id="Слой_2-2" data-name="Слой 2"><circle class="cls-1" cx="1336.5" cy="1336.5" r="1336.5"/><path id="Logo" class="cls-2" d="M2095.31,936.49c11.14-37.13,0-63.12-52-63.12H1870.07c-44.55,0-64.36,23.51-75.5,49.5,0,0-87.87,215.35-212.87,354-40.84,40.84-58.17,53.22-80.45,53.22-11.14,0-27.23-12.38-27.23-49.5V936.49c0-44.55-12.38-63.12-49.5-63.12H1152.25c-27.23,0-44.55,21-44.55,39.6,0,42.08,61.88,52,69.31,168.32v255c0,55.69-9.9,65.59-32.18,65.59-58.17,0-201.73-215.35-285.89-462.87-17.33-45.79-33.42-65.59-78-65.59H607.69c-49.5,0-59.41,23.51-59.41,49.5,0,45.79,58.17,273.51,273.51,574.26C965.36,1702.58,1167.1,1814,1350.27,1814c110.15,0,123.76-24.75,123.76-66.83V1591.2c0-49.5,9.9-59.41,45.79-59.41,26,0,69.31,12.38,172,111.39,117.57,117.57,137.38,170.79,203,170.79h173.27c49.5,0,74.26-24.75,59.41-73-16.09-48.27-71.78-118.81-146-203-40.84-48.27-101.49-99-118.81-125-26-33.42-18.56-48.27,0-76.73,0-1.24,211.63-298.27,232.67-399.75Z"/></g></g></svg>