<svg xmlns="http://www.w3.org/2000/svg" viewBox="0 0 1313.74 1319.64"><defs><style>.cls-1{fill:#fff;}.cls-2{fill:#ff0d44;}</style></defs><title>Ресурс 1</title><g id="Слой_2" data-name="Слой 2"><g id="Слой_1-2" data-name="Слой 1"><path class="cls-1" d="M22.75,1296.8l89.59-327.12A630.07,630.07,0,0,1,28,654.09C28.18,306,311.46,22.85,659.51,22.85,828.44,22.93,987,88.67,1106.2,208S1291.06,485.91,1291,654.58c-.14,348.07-283.44,631.27-631.45,631.27h-.28A631.29,631.29,0,0,1,357.51,1209L22.75,1296.8Z"/><path class="cls-2" d="M496.13,380.52c-12.24-27.22-25.13-27.76-36.78-28.24-9.53-.41-20.43-.38-31.32-.38s-28.61,4.1-43.58,20.45-57.21,55.89-57.21,136.3,58.57,158.12,66.74,169S507,858.88,673.18,924.39C811.24,978.83,839.34,968,869.3,965.28s96.7-39.53,110.32-77.7,13.62-70.87,9.54-77.7-15-10.9-31.33-19.07-96.7-47.72-111.68-53.17-25.88-8.17-36.78,8.19-42.2,53.15-51.74,64-19.07,12.28-35.42,4.11-69-25.44-131.43-81.12c-48.59-43.32-81.39-96.82-90.93-113.18s-1-25.2,7.18-33.35c7.34-7.32,16.35-19.08,24.52-28.62s10.88-16.35,16.33-27.25,2.72-20.46-1.36-28.63-35.85-89-50.38-121.32Z"/><path class="cls-2" d="M1122.33,191.77C998.82,68.18,834.59.08,659.62,0,299.06,0,5.64,293.33,5.49,653.87A652.7,652.7,0,0,0,92.8,980.79L0,1319.64l346.76-90.93a653.68,653.68,0,0,0,312.58,79.6h.28c360.5,0,654-293.38,654.12-653.91.06-174.73-67.92-339-191.41-462.63ZM659.62,1197.87h-.21a543,543,0,0,1-276.72-75.77l-19.86-11.77-205.78,54L212,963.72,199,943.16a542.06,542.06,0,0,1-83.12-289.24c.12-299.67,244-543.47,543.9-543.47,145.23.06,281.72,56.67,384.38,159.39s159.14,239.28,159.09,384.52C1203.17,954,959.28,1197.87,659.62,1197.87Z"/></g></g></svg>